<?xml version="1.0" encoding="utf-8"?>
<!-- Generator: Adobe Illustrator 24.2.0, SVG Export Plug-In . SVG Version: 6.00 Build 0)  -->
<svg version="1.1" id="Capa_1" xmlns="http://www.w3.org/2000/svg" xmlns:xlink="http://www.w3.org/1999/xlink" x="0px" y="0px"
	 viewBox="0 0 512 512" style="enable-background:new 0 0 512 512;" xml:space="preserve">
<style type="text/css">
	.st0{fill:#E8382E;}
</style>
<g>
	<g>
		<path class="st0" d="M497.2,216.6H351.1l103.3-103.3c5.8-5.8,5.8-15.1,0-20.9l-34.8-34.8c-5.8-5.8-15.1-5.8-20.9,0L295.4,160.9
			V14.8c0-8.2-6.6-14.8-14.8-14.8h-49.2c-8.2,0-14.8,6.6-14.8,14.8v146.1L113.3,57.6c-5.8-5.8-15.1-5.8-20.9,0L57.6,92.4
			c-5.8,5.8-5.8,15.1,0,20.9l103.3,103.3H14.8c-8.2,0-14.8,6.6-14.8,14.8v49.2c0,8.2,6.6,14.8,14.8,14.8h146.1L57.6,398.7
			c-5.8,5.8-5.8,15.1,0,20.9l34.8,34.8c5.8,5.8,15.1,5.8,20.9,0l103.3-103.3v146.1c0,8.2,6.6,14.8,14.8,14.8h49.2
			c8.2,0,14.8-6.6,14.8-14.8V351.1l103.3,103.3c5.8,5.8,15.1,5.8,20.9,0l34.8-34.8c5.8-5.8,5.8-15.1,0-20.9L351.1,295.4h146.1
			c8.2,0,14.8-6.6,14.8-14.8v-49.2C512,223.2,505.4,216.6,497.2,216.6z"/>
	</g>
</g>
</svg>
